<svg xmlns="http://www.w3.org/2000/svg" width="182" height="45" viewBox="0 0 182 45" fill="none">
<path d="M68.6583 27.3553H59.9667L60.9583 25.1053L63.4667 19.4803C63.6417 19.0658 63.7584 18.6513 63.9334 18.1776C64.1084 17.704 64.225 17.2303 64.3417 16.6974C64.5167 17.2895 64.6334 17.7632 64.8084 18.2368C64.9834 18.7105 65.1 19.125 65.275 19.4803L68.6583 27.3553ZM71.8667 34.7566H76.0084L64.2833 9.11844L52.5 34.7566H56.6417L58.5667 30.4342H70L71.8667 34.7566ZM86.2167 15.8092C86.2167 14.8619 86.5083 14.0921 87.15 13.5592C87.7917 13.0263 88.6083 12.7303 89.6583 12.7303C90.4167 12.7303 91.0583 12.9079 91.6417 13.2632C92.225 13.6184 92.75 14.2105 93.2167 14.9803L96.3083 13.3816C95.8417 12.079 95.025 11.0724 93.8 10.3618C92.575 9.65132 91.1167 9.29606 89.3083 9.29606C87.15 9.29606 85.3417 9.94739 84 11.1908C82.6583 12.4342 81.9583 14.0921 81.9583 16.0461C81.9583 17.5856 82.425 18.8882 83.3 19.954C84.175 21.0197 85.9833 22.2039 88.6667 23.5658C88.8417 23.625 89.075 23.7434 89.425 23.9211C91.8167 25.0461 92.9833 26.3487 92.9833 27.7698C92.9833 28.8948 92.6334 29.7829 91.9333 30.4342C91.2333 31.0855 90.3 31.4408 89.1334 31.4408C87.9084 31.4408 86.8583 31.1448 86.1 30.5527C85.2834 29.9606 84.7584 29.1316 84.4667 28.0066L81.3167 29.4868C81.725 31.2632 82.6 32.6842 83.8834 33.6316C85.225 34.5789 86.9167 35.0526 88.9583 35.0526C91.4083 35.0526 93.3917 34.3421 94.85 32.9803C96.3083 31.6184 97.0084 29.7237 97.0084 27.4145C97.0084 25.8158 96.5417 24.454 95.6667 23.3882C94.7917 22.3224 93.1 21.1974 90.7083 20.0724C90.5917 20.0132 90.4167 19.954 90.1833 19.8355C87.5583 18.6513 86.2167 17.2895 86.2167 15.8092ZM122.5 32.625C124.133 30.9671 125.008 28.4803 125.008 25.1645V9.82897H121.042V24.8092C121.042 27.0592 120.517 28.7171 119.525 29.8421C118.533 30.9671 117.017 31.5 115.033 31.5C112.992 31.5 111.533 30.9671 110.483 29.8421C109.492 28.7171 108.967 27.0592 108.967 24.8092V9.82897H105.058V25.1645C105.058 28.5395 105.875 31.0263 107.508 32.6842C109.142 34.3421 111.65 35.1711 114.975 35.1711C118.358 35.1119 120.867 34.2829 122.5 32.625ZM154.35 34.4605L145.775 22.9737C147.7 23.0329 149.217 22.3224 150.15 21.1974C151.083 20.0724 151.55 18.5329 151.55 16.579C151.55 15.454 151.317 14.4474 150.908 13.5C150.5 12.5526 149.917 11.7829 149.158 11.1908C148.517 10.7171 147.758 10.3619 146.883 10.125C146.008 9.88818 144.725 9.82897 143.15 9.82897H133.35V34.4605H137.025V23.4474V13.2632H139.767H142.275C142.275 13.2632 142.275 13.2632 142.333 13.2632H142.392C144.317 13.2632 145.658 13.5592 146.417 14.0921C147.175 14.625 147.525 15.6316 147.525 16.9342C147.525 18.1777 147.175 19.0658 146.475 19.5395C145.833 20.0132 144.667 20.25 142.858 20.25C142.683 20.25 139.708 20.25 139.533 20.25L142.392 24.1579L149.858 34.4013L154.35 34.4605ZM174.767 27.3553H165.783L166.892 24.75L169.4 19.125C169.575 18.7105 169.692 18.2961 169.867 17.8224C170.042 17.3487 170.158 16.875 170.275 16.3421C170.45 16.9342 170.567 17.4079 170.742 17.8816C170.917 18.3553 171.033 18.7697 171.208 19.125L174.767 27.3553ZM182 34.4605L170.275 8.82239L158.492 34.4605H162.633L164.383 30.4934H176.108L177.858 34.4605H182Z" fill="#0032A3"/>
<path d="M18.7834 24.5724L19.075 24.2763L18.7834 23.9803C18.1417 23.329 17.2667 22.9145 16.3333 22.9145C15.4 22.9145 14.525 23.329 13.8834 23.9803L13.5917 24.2763L13.8834 24.5724C14.525 25.2237 15.4 25.6382 16.3333 25.6382C17.2667 25.5789 18.1417 25.2237 18.7834 24.5724ZM16.3333 23.7435C16.9167 23.7435 17.4417 23.9211 17.9084 24.2763C17.4417 24.6316 16.9167 24.8092 16.3333 24.8092C15.75 24.8092 15.225 24.6316 14.7584 24.2763C15.225 23.9211 15.75 23.7435 16.3333 23.7435Z" fill="#0032A3"/>
<path d="M16.3333 21.4342C17.0333 21.4342 17.7333 21.5526 18.3167 21.8487L18.6667 21.1382C17.9667 20.7829 17.15 20.6645 16.3333 20.6645C15.5167 20.6645 14.7583 20.8421 14 21.1382L14.35 21.8487C14.9917 21.6119 15.6917 21.4342 16.3333 21.4342Z" fill="#0032A3"/>
<path d="M5.30838 22.9737C4.37505 22.9737 3.50004 23.3882 2.85838 24.0395L2.56671 24.3355L2.85838 24.6316C3.50004 25.2829 4.37505 25.6974 5.30838 25.6974C6.24172 25.6974 7.11672 25.2829 7.75839 24.6316L8.05006 24.3355L7.75839 24.0395C7.11672 23.2697 6.24172 22.9737 5.30838 22.9737ZM5.30838 24.75C4.72505 24.75 4.20004 24.5724 3.73338 24.2171C4.20004 23.8618 4.72505 23.6842 5.30838 23.6842C5.89172 23.6842 6.41673 23.8618 6.88339 24.2171C6.41673 24.6316 5.89172 24.75 5.30838 24.75Z" fill="#0032A3"/>
<path d="M5.30834 21.4342C6.00834 21.4342 6.70832 21.5526 7.29165 21.8487L7.64167 21.1382C6.94167 20.7829 6.12501 20.6645 5.30834 20.6645C4.49167 20.6645 3.73334 20.8421 2.97501 21.1382L3.32499 21.8487C3.90833 21.6119 4.66667 21.4342 5.30834 21.4342Z" fill="#0032A3"/>
<path d="M17.85 28.0658C18.375 28.5987 19.1916 28.954 19.95 28.954C20.7083 28.954 21.4667 28.5987 22.05 28.0658L21.525 27.5329C21.1166 27.9474 20.5917 28.1842 20.0083 28.1842C19.425 28.1842 18.9 28.0066 18.4916 27.5329L17.85 28.0658Z" fill="#0032A3"/>
<path d="M21.5834 30.0789C21.1167 29.9605 20.6501 29.9605 20.1834 30.1382C20.1251 30.1974 20.0667 30.1974 20.0084 30.1974C19.9501 30.1974 19.8917 30.1974 19.8334 30.1382C19.425 29.9605 18.9001 29.8421 18.4334 30.0789C17.7917 30.2566 17.15 30.6118 16.625 31.0855L16.2751 31.4408L16.625 31.7369C17.2667 32.329 18.2 32.625 19.075 32.625H20.0084H20.9417C21.8751 32.625 22.7501 32.2698 23.3917 31.7369L23.7417 31.4408L23.3917 31.0855C22.8667 30.6711 22.225 30.375 21.5834 30.0789ZM20.9417 31.8553H20.0084H19.075C18.55 31.8553 18.025 31.7369 17.5 31.4408C17.85 31.1448 18.2001 31.0263 18.6084 30.9079C18.9001 30.8487 19.1334 30.8487 19.4251 30.9671C19.6001 31.0263 19.8334 31.0855 19.95 31.0855C20.125 31.0855 20.3584 31.0263 20.4751 30.9671C20.7667 30.8487 21 30.8487 21.2917 30.9079C21.7 31.0263 22.1084 31.2632 22.4001 31.4408C21.9917 31.6777 21.4667 31.8553 20.9417 31.8553Z" fill="#0032A3"/>
<path d="M23.625 25.579C24.5583 25.579 25.4333 25.1645 26.075 24.5132L26.3667 24.2171L26.075 23.9211C25.4333 23.2698 24.5583 22.8553 23.625 22.8553C22.6917 22.8553 21.8167 23.2698 21.175 23.9211L20.8834 24.2171L21.175 24.5132C21.8167 25.2237 22.6917 25.579 23.625 25.579ZM23.625 23.7434C24.2083 23.7434 24.7333 23.9211 25.2 24.2763C24.7333 24.6316 24.2083 24.8092 23.625 24.8092C23.0417 24.8092 22.5167 24.6316 22.05 24.2763C22.5167 23.9211 23.0417 23.7434 23.625 23.7434Z" fill="#0032A3"/>
<path d="M23.625 21.4342C24.325 21.4342 25.025 21.5526 25.6083 21.8487L25.9583 21.1382C25.2583 20.7829 24.4417 20.6645 23.625 20.6645C22.8083 20.6645 22.05 20.8421 21.2917 21.1382L21.6417 21.8487C22.225 21.6119 22.925 21.4342 23.625 21.4342Z" fill="#0032A3"/>
<path d="M34.7083 22.9737C33.775 22.9737 32.9 23.3882 32.2584 24.0395L31.9667 24.3355L32.2584 24.6316C32.9 25.2829 33.775 25.6974 34.7083 25.6974C35.6417 25.6974 36.5167 25.2829 37.1584 24.6316L37.45 24.3355L37.1584 24.0395C36.4584 23.2697 35.5833 22.9737 34.7083 22.9737ZM34.7083 24.75C34.125 24.75 33.6 24.5724 33.1334 24.2171C33.6 23.8618 34.125 23.6842 34.7083 23.6842C35.2917 23.6842 35.8167 23.8618 36.2834 24.2171C35.8167 24.6316 35.2917 24.75 34.7083 24.75Z" fill="#0032A3"/>
<path d="M34.7083 21.4342C35.4083 21.4342 36.1083 21.5526 36.6917 21.8487L37.0417 21.1382C36.3417 20.7829 35.525 20.6645 34.7083 20.6645C33.8917 20.6645 33.1333 20.8421 32.375 21.1382L32.725 21.8487C33.3084 21.6119 33.95 21.4342 34.7083 21.4342Z" fill="#0032A3"/>
<path d="M40.1334 26.704L38.6167 22.9145V21.3158C38.6167 19.8947 38.2084 18.4737 37.5084 17.2895C37.1 13.6184 34.4167 10.7171 30.975 10.0066C30.625 8.28949 29.5167 6.86843 28.0584 6.03948C27.0667 2.48685 23.8 0 20.125 0C16.45 0 13.1833 2.48685 12.1917 6.03948C10.7333 6.86843 9.62501 8.23028 9.27501 10.0066C5.83335 10.6579 3.15001 13.5592 2.74167 17.2895C2.04167 18.4737 1.63336 19.8947 1.63336 21.3158V22.9145L0.116674 26.704C0.0583405 26.8816 0 27.1184 0 27.3553C0 28.2434 0.700007 28.954 1.57501 28.954H2.2167V30.7895H3.79167C4.375 30.7895 4.95836 30.9671 5.42503 31.3224C4.95836 31.6776 4.375 31.8553 3.79167 31.8553H2.80003V33.0395L3.38336 33.6316V34.1053C3.38336 35.6448 4.66667 37.0066 6.24167 37.0066C6.82501 37.0066 7.40835 36.8289 7.93335 36.4145L8.75 35.8224C10.15 36 11.2583 37.0066 11.6667 38.4276C12.7167 42.3355 16.2167 45 20.1834 45C24.15 45 27.65 42.3355 28.7 38.4276C29.1083 37.0658 30.2167 36.0592 31.6167 35.8224L32.4334 36.4145C32.9 36.8289 33.4833 37.0066 34.125 37.0066C35.6417 37.0066 36.9833 35.704 36.9833 34.1053V33.6316L37.5667 33.0395V31.8553H36.575C35.9917 31.8553 35.4083 31.6776 34.9417 31.3224C35.4083 30.9671 35.9917 30.7895 36.575 30.7895H38.15V28.954H38.7917C39.6667 28.954 40.3667 28.2434 40.3667 27.3553C40.25 27.1184 40.1917 26.9408 40.1334 26.704ZM36.575 16.9934C36.1083 16.9934 35.5833 17.1118 35.1167 17.1711C34.3 13.8553 31.5 11.6053 28.1167 11.6053C27.5917 11.6053 27.125 11.6645 26.6 11.7237C26.425 11.6053 26.1917 11.4276 26.0167 11.3684C27.0084 10.8947 28.0583 10.6579 29.1667 10.6579C32.9 10.6579 35.9917 13.3816 36.575 16.9934ZM29.05 13.9145C30.6834 14.7434 32.1417 16.5789 32.3167 18.5329C32.2 18.5921 32.025 18.7105 31.9083 18.8289C31.5 19.125 31.0917 19.3618 30.7417 19.6579C30.8 19.3026 30.8 19.0066 30.8 18.6513C30.8584 16.9934 30.1584 15.2763 29.05 13.9145ZM10.15 24.9277L10.0917 24.8684C9.91669 24.6908 9.80003 24.3947 9.80003 24.1579C9.80003 23.5658 10.325 23.0329 10.9083 23.0329C11.4917 23.0329 12.0167 23.5658 12.0167 24.1579V27.8289C12.0167 28.4803 12.075 29.25 12.3084 29.8421C12.25 29.8421 12.1917 29.8421 12.1334 29.8421C11.55 29.8421 11.025 29.3092 11.025 28.7171V26.8816C10.9667 26.1711 10.7333 25.5198 10.15 24.9277ZM9.27501 19.5987C8.86668 19.4211 8.45835 19.125 8.10835 18.7697C7.99168 18.6513 7.81667 18.5921 7.70001 18.4737C7.87501 16.5197 9.27503 14.625 10.9667 13.8553C9.85836 15.2171 9.15834 16.875 9.15834 18.5329C9.15834 18.9474 9.21668 19.2434 9.27501 19.5987ZM6.94168 18.0592C6.47501 17.7632 6.00835 17.5855 5.48335 17.4079C6.12501 14.4474 8.80836 12.3158 11.8417 12.3158C12.0167 12.3158 12.25 12.3158 12.425 12.3158C12.25 12.4934 12.0167 12.7303 11.8417 12.9079C9.45003 13.3816 7.35001 15.5724 6.94168 18.0592ZM11.6083 14.1513C11.1417 15.0987 10.9083 16.2829 10.9083 17.2895C10.9083 18.7697 11.3167 20.1908 12.075 21.4342V22.5C11.7833 22.3224 11.4917 22.1448 11.0833 22.1448C10.3833 21.0198 9.97502 19.7763 9.97502 18.5329C9.91669 17.0526 10.5583 15.454 11.6083 14.1513ZM11.6083 17.3487C11.6083 15.6316 12.25 13.5 13.2417 12.7303C13.3 12.6711 13.7667 12.3158 13.825 12.3158C13.1833 13.5 12.775 14.9211 12.775 16.3421C12.775 17.4079 12.95 18.4737 13.3583 19.4803C12.95 19.8355 12.6583 20.1908 12.3667 20.6053C11.8417 19.5987 11.6083 18.4737 11.6083 17.3487ZM24.2083 11.4276C24.5 11.4868 24.7917 11.6053 25.0833 11.7829L25.2584 12.1382C25.9584 13.3224 26.3667 14.8026 26.3667 16.2829C26.3667 17.2303 26.25 18.1184 25.9 18.8882C25.4917 18.5921 25.2 18.3553 24.7333 18.1776C24.85 17.3487 25.025 16.5789 25.025 15.6908C25.0833 14.1513 24.85 12.671 24.2083 11.4276ZM22.4583 10.8948C22.8083 10.954 23.1 11.0132 23.3917 11.0724C23.975 12.375 24.325 13.9737 24.325 15.6316C24.325 16.3421 24.2667 17.1118 24.15 17.7632C23.6833 17.5855 23.2167 17.4079 22.6917 17.2895C22.75 16.579 22.8084 15.8092 22.8084 14.9803C22.75 13.5592 22.6333 12.1382 22.4583 10.8948ZM24.5584 10.6579C24.3834 10.5987 24.0917 10.5395 23.9167 10.4803C23.9167 10.4803 23.9167 10.4803 23.9167 10.4211C23.9167 8.40792 22.4 6.75 20.4167 6.51316V3.31581C22.9833 3.49344 25.025 5.74343 25.025 8.4079C25.025 9.23685 24.9084 10.0066 24.5584 10.6579ZM23.1 10.2434C22.1084 10.0658 21.1167 9.88817 20.0084 9.88817C18.9584 9.88817 17.9083 10.0066 16.9167 10.2434C16.975 8.58552 18.375 7.28289 20.0084 7.28289C21.6417 7.3421 22.9834 8.58552 23.1 10.2434ZM22.05 15.0395C22.05 15.75 22.05 16.4605 21.9917 17.1119C21.4667 17.0526 20.9417 16.9934 20.4167 16.9342V10.5987C20.825 10.5987 21.2917 10.6579 21.7 10.6579C21.9333 12.0197 22.05 13.5 22.05 15.0395ZM19.6 10.6579V16.9934C19.075 16.9934 18.55 17.0526 18.025 17.1711C17.9667 16.5197 17.9667 15.8092 17.9667 15.0987C17.9667 13.5592 18.0833 12.079 18.375 10.7763C18.7833 10.7171 19.1917 10.6579 19.6 10.6579ZM17.2667 17.3487C16.8 17.4671 16.275 17.6448 15.8084 17.8224C15.6917 17.1711 15.6334 16.4013 15.6334 15.6908C15.6334 14.0329 15.9833 12.4934 16.5667 11.1316C16.9167 11.0724 17.15 11.0132 17.5 10.9539C17.2083 12.2566 17.0917 13.6184 17.0917 15.0987C17.2084 15.8684 17.2084 16.5789 17.2667 17.3487ZM19.6 6.51316C17.6167 6.69079 16.1 8.40792 16.1 10.4211C16.1 10.4211 16.1 10.4211 16.1 10.4803C15.925 10.5395 15.6333 10.5987 15.4583 10.6579C15.1083 10.0066 14.9334 9.17765 14.9334 8.34871C14.9334 5.68423 16.975 3.43421 19.5417 3.25658V6.45396H19.6V6.51316ZM15.75 11.4276C15.225 12.7303 14.9334 14.2105 14.9334 15.6316C14.9334 16.5198 14.9917 17.2895 15.225 18.1184C14.8167 18.2961 14.4084 18.5921 14.0584 18.8289C13.7667 17.9408 13.5917 17.1119 13.5917 16.2237C13.5917 14.7434 13.9417 13.2632 14.7 12.079L14.875 11.7237C15.1667 11.6053 15.5167 11.546 15.75 11.4276ZM12.8333 24.0987V21.3158C14.2333 19.125 16.975 17.704 20.0084 17.704C23.0417 17.704 25.7834 19.0658 27.1834 21.3158V24.0987V27.7698C27.1834 30.4342 25.725 32.921 23.3917 34.2237C23.0417 34.4013 22.75 34.6974 22.5167 34.9342C21.9334 35.6447 21 36.1184 20.0084 36.1184C19.0167 36.1184 18.0833 35.6447 17.5 34.9342C17.2083 34.6382 16.975 34.4013 16.625 34.2237C14.2917 32.921 12.8333 30.4342 12.8333 27.7698V24.0987ZM26.6 19.4803C27.0084 18.4737 27.1834 17.4079 27.1834 16.3421C27.1834 14.9803 26.8334 13.5 26.1334 12.3158C26.1917 12.375 26.6584 12.7303 26.7167 12.7303C27.7084 13.6184 28.35 15.6908 28.35 17.3487C28.35 18.4737 28.0583 19.5395 27.5333 20.5461C27.3583 20.1316 27.0084 19.7763 26.6 19.4803ZM27.9417 27.7698V24.0987C27.9417 23.5066 28.4667 22.9737 29.05 22.9737C29.6334 22.9737 30.1583 23.5066 30.1583 24.0987C30.1583 24.3947 30.1 24.6316 29.8667 24.8092L29.8084 24.8684C29.225 25.4605 28.9334 26.171 28.9334 26.8224V28.6579C28.9334 29.25 28.4083 29.7829 27.825 29.7829C27.7667 29.7829 27.7083 29.7829 27.65 29.7829C27.8833 29.1908 27.9417 28.4803 27.9417 27.7698ZM28.9334 22.1448C28.525 22.1448 28.2333 22.2632 27.9417 22.5V21.4342C28.7583 20.1316 29.1083 18.7697 29.1083 17.2895C29.1083 16.2829 28.8167 15.0987 28.4083 14.1513C29.4 15.454 30.0417 17.0526 30.0417 18.5329C30.0417 19.7763 29.6334 21.079 28.9334 22.1448ZM28.1167 12.9671C27.9417 12.7895 27.7083 12.5526 27.5333 12.375C27.7083 12.375 27.9417 12.375 28.1167 12.375C31.15 12.375 33.7167 14.5066 34.4167 17.4671C33.95 17.6447 33.425 17.8816 32.9583 18.1184C32.6083 15.5724 30.5083 13.3816 28.1167 12.9671ZM30.0417 9.94736C29.75 9.94736 29.5167 9.88817 29.225 9.88817C27.825 9.88817 26.4833 10.2434 25.2 10.9539C25.6083 10.125 25.7833 9.29606 25.7833 8.4079C25.7833 7.57895 25.6667 6.86842 25.375 6.21711C27.5917 6.27632 29.4583 7.87499 30.0417 9.94736ZM20.0084 0.888158C23.1 0.888158 25.9 2.84211 26.95 5.74343C26.425 5.5658 25.8417 5.44738 25.3167 5.44738C25.2583 5.44738 25.1417 5.44738 25.025 5.44738C24.0333 3.73027 22.1084 2.48685 20.0084 2.48685C17.9084 2.48685 15.9833 3.67106 14.9917 5.44738C14.9333 5.44738 14.8167 5.44738 14.7 5.44738C14.1167 5.44738 13.5917 5.50659 13.0667 5.74343C14.1167 2.84211 16.8584 0.888158 20.0084 0.888158ZM14.5833 6.21711C14.2917 6.86842 14.175 7.63816 14.175 8.4079C14.175 9.29606 14.35 10.125 14.7584 10.9539C13.4167 10.2434 12.1333 9.88817 10.7333 9.88817C10.4417 9.88817 10.2083 9.88815 9.91667 9.94736C10.5583 7.87499 12.3667 6.27632 14.5833 6.21711ZM10.7333 10.6579C11.8417 10.6579 12.8917 10.954 13.8834 11.3684C13.7084 11.4868 13.475 11.546 13.3 11.7237C12.8334 11.6053 12.3083 11.6053 11.7833 11.6053C8.40001 11.6053 5.54167 13.9737 4.78334 17.1711C4.31667 17.0526 3.85001 16.9934 3.32501 16.9934C3.96667 13.3816 7.11668 10.6579 10.7333 10.6579ZM9.33333 35.1118L10.5 34.1645L10.0333 33.5724L7.23335 35.7039C6.88335 36 6.41667 36.1184 5.95001 36.1184C4.84167 36.1184 3.90834 35.1711 3.90834 34.0461V33.2171L3.32501 32.625V32.5658H3.5C4.43333 32.5658 5.36668 32.2105 6.06668 31.5592L6.41667 31.2632L6.06668 30.9671C5.42501 30.3158 4.49167 29.9605 3.5 29.9605H2.68335V28.8947H3.5V28.0658H2.33333H1.28334C0.816674 28.0658 0.466695 27.6513 0.466695 27.2368C0.466695 27.1184 0.466681 27.0592 0.525014 26.8816L2.10002 22.9737V21.2566C2.10002 19.954 2.45003 18.7698 3.0917 17.704C4.6667 17.7632 6.18336 18.3553 7.46669 19.3618C8.05003 19.8355 8.63335 20.25 9.39169 20.4869C9.56669 21.079 9.80003 21.6119 10.0917 22.1448C9.3917 22.4408 8.92503 23.1513 8.92503 23.9803C8.92503 24.5132 9.10001 24.9868 9.45001 25.3421L9.56668 25.4605C9.97501 25.875 10.0917 26.3487 10.0917 26.7632V28.5987C10.0917 29.6645 10.9667 30.5527 12.0167 30.5527C12.1334 30.5527 12.3084 30.5526 12.425 30.4934C12.4834 31.0855 12.5417 31.6777 12.5417 32.329C12.5417 33.8684 12.1917 35.4671 11.6083 36.8881C11.1417 36.1184 10.325 35.4671 9.33333 35.1118ZM27.825 38.1316C26.8333 41.6842 23.6834 44.1118 20.0084 44.1118C16.3334 44.1118 13.1833 41.625 12.1917 38.1316C12.1917 38.0724 12.1334 37.954 12.1334 37.8355C13.0084 36.1776 13.475 34.2829 13.475 32.3882C13.475 32.3882 13.475 32.3882 13.475 32.329C14.175 33.3948 15.1083 34.2829 16.275 34.875C16.5667 34.9934 16.7417 35.2303 16.9167 35.4079C17.5583 36.296 18.55 36.7697 19.6583 36.8881V39.7303H20.475V36.8881C21.525 36.7697 22.5167 36.296 23.2167 35.4079C23.3917 35.2303 23.625 34.9934 23.8583 34.875C24.9667 34.2829 25.9583 33.3948 26.6583 32.329C26.6583 32.329 26.6583 32.329 26.6583 32.3882C26.6583 34.2829 27.125 36.1776 28 37.8355C27.8833 37.954 27.825 38.0724 27.825 38.1316ZM38.5584 28.1842H37.5084H36.3417V29.0132H37.1583V30.0789H36.3417C35.4084 30.0789 34.475 30.4342 33.775 31.0855L33.425 31.3816L33.775 31.6776C34.4167 32.3289 35.35 32.6842 36.3417 32.6842H36.5167V32.7434L35.9334 33.3355V34.1645C35.9334 35.2895 35 36.2369 33.8917 36.2369C33.425 36.2369 33.0167 36.1184 32.6083 35.8224L29.8084 33.6908L29.3417 34.2829L30.5084 35.2303C29.575 35.5855 28.7 36.1777 28.175 37.0658C27.5917 35.6448 27.2417 34.1053 27.2417 32.5066C27.2417 31.9145 27.3 31.3224 27.3583 30.671C27.475 30.671 27.65 30.7303 27.7667 30.7303C28.8167 30.7303 29.6917 29.8421 29.6917 28.7763V26.9408C29.6917 26.4671 29.8667 26.0526 30.2167 25.6382L30.3333 25.5198C30.6833 25.1645 30.8583 24.6316 30.8583 24.1579C30.8583 23.3289 30.3333 22.6184 29.6917 22.3224C30.0417 21.7895 30.275 21.1974 30.3917 20.6645C31.0334 20.3684 31.7333 20.0132 32.3167 19.5395C33.6 18.5329 35.1167 17.9408 36.6917 17.8816C37.3333 18.9474 37.6834 20.25 37.6834 21.4342V23.1513L39.2584 27.0592C39.3167 27.1776 39.3167 27.2368 39.3167 27.4145C39.4333 27.7697 39.025 28.1842 38.5584 28.1842Z" fill="#0032A3"/>
</svg>
